# xmcd
#
# Track frame offsets:
#	182
#	72127
#	104252
#	118755
#	131802
#	145427
#	162095
#	187582
#	200257
#	212785
#	224932
#	239352
#	255720
#	266435
#	280552
#	309097
#
# Disc length: 4387 seconds
#
# Revision: 2
# Processed by: cddbd v1.5.1PL0 Copyright (c) Steve Scherf et al.
# Submitted via: audiograbber 1.83.01
#
DISCID=ef112110
DTITLE=The Blues - Volume 1
DYEAR=1900
DGENRE=Blues
TTITLE0=Johnny Rivers - John Lee Hooker
TTITLE1=The Animals - Talkin Bout You
TTITLE2=Sonny Boy Williamson - Help Me
TTITLE3=Muddy Waters - Got My Moyo Workin'
TTITLE4=Bo Diddley - I´m A Man
TTITLE5=Buddy Guy -Moanin
TTITLE6=Howlin' Wolf - Little red rooster
TTITLE7=Muddy Waters - Hoochi Coochie Man
TTITLE8=Etta James - Something´s Got A Hold On Me
TTITLE9=Otis Rush - You Know My Love
TTITLE10=Lowell Fulson - Reconsider Baby
TTITLE11=B.B. King - It's My Own Fault Baby
TTITLE12=Eric Clapton - West Coast Idea
TTITLE13=Chuck Berry - Wee Wee Hours
TTITLE14=Billy Boy Arnold and Tony Mc Phee - Blue And Lonesome
TTITLE15=Earl Hooker - End Of The Blues
EXTD=
EXTT0=
EXTT1=
EXTT2=
EXTT3=
EXTT4=
EXTT5=
EXTT6=
EXTT7=
EXTT8=
EXTT9=
EXTT10=
EXTT11=
EXTT12=
EXTT13=
EXTT14=
EXTT15=
PLAYORDER=
